<?xml version="1.0" standalone="no"?>
<!DOCTYPE svg PUBLIC "-//W3C//DTD SVG 1.1//EN" "http://www.w3.org/Graphics/SVG/1.1/DTD/svg11.dtd" >
<svg xmlns="http://www.w3.org/2000/svg" xmlns:xlink="http://www.w3.org/1999/xlink" version="1.1">
<metadata>
Created by FontForge 20150913 at Thu Apr  7 04:52:26 2016
 By Jimmy Wärting
Copyright (c) 2013 byThinkDust. All rights reserved. 
</metadata>
<defs>
<font id="Nanami" horiz-adv-x="600" >
  <font-face 
    font-family="Nanami"
    font-weight="400"
    font-stretch="normal"
    units-per-em="1000"
    panose-1="2 0 0 0 0 0 0 0 0 0"
    ascent="750"
    descent="-250"
    x-height="500"
    cap-height="750"
    bbox="-64 -225 1247 977"
    underline-thickness="50"
    underline-position="-100"
    unicode-range="U+0020-FB02"
  />
<missing-glyph horiz-adv-x="290" 
 />
    <glyph glyph-name=".notdef" horiz-adv-x="290" 
 />
    <glyph glyph-name=".null" horiz-adv-x="0" 
 />
    <glyph glyph-name="CR" horiz-adv-x="290" 
 />
    <glyph glyph-name="space" unicode=" " horiz-adv-x="290" 
 />
    <glyph glyph-name="comma" unicode="," horiz-adv-x="225" 
d="M46 97l111 23l17 -187l-79 -10z" />
    <glyph glyph-name="hyphen" unicode="-" horiz-adv-x="429" 
d="M56 344h317v-114h-317v114z" />
    <glyph glyph-name="period" unicode="." horiz-adv-x="227" 
d="M55 52c0 31 25 61 61 61c31 0 56 -30 56 -61s-25 -56 -56 -56c-36 0 -61 25 -61 56z" />
    <glyph glyph-name="colon" unicode=":" horiz-adv-x="229" 
d="M56 52c0 31 25 61 61 61c31 0 56 -30 56 -61s-25 -56 -56 -56c-36 0 -61 25 -61 56zM56 403c0 36 25 61 61 61c31 0 56 -25 56 -61c0 -31 -25 -56 -56 -56c-36 0 -61 25 -61 56z" />
    <glyph glyph-name="semicolon" unicode=";" horiz-adv-x="226" 
d="M54 405c0 35 25 60 56 60c35 0 60 -25 60 -60c0 -31 -25 -56 -60 -56c-31 0 -56 25 -56 56zM46 97l111 23l17 -187l-79 -10z" />
    <glyph glyph-name="less" unicode="&#x3c;" horiz-adv-x="670" 
d="M57 210l1 85l528 219v-89l-410 -175c0 -1 1 -2 409 -170v-89z" />
    <glyph glyph-name="equal" unicode="=" horiz-adv-x="571" 
d="M57 230h457v-114h-457v114zM57 398h457v-114h-457v114z" />
    <glyph glyph-name="greater" unicode="&#x3e;" horiz-adv-x="669" 
d="M585 295l1 -85l-528 -219v89c408 168 409 169 409 170l-410 175v89z" />
    <glyph glyph-name="A" unicode="A" horiz-adv-x="750" 
d="M730 0h-153l-59 135c-1 3 -4 5 -8 5h-271c-4 0 -7 -2 -8 -5l-56 -135h-154l299 750h109zM377 493l-2 2c-1 0 -2 -1 -2 -2c-1 -1 -1 -1 -1 -2l-84 -211c-1 -1 -1 -2 -1 -4s1 -3 4 -3h167c3 0 4 1 4 4c0 1 0 2 -1 3l-83 211c-1 1 -1 1 -1 2z" />
    <glyph glyph-name="C" unicode="C" horiz-adv-x="713" 
d="M437 615c-136 -5 -240 -107 -240 -240s116 -232 240 -240c57 0 110 20 151 53l88 -114c-13 -13 -94 -82 -239 -82c-212 0 -383 171 -383 383s171 383 383 383c146 0 225 -71 239 -82l-88 -114c-41 33 -94 53 -151 53z" />
    <glyph glyph-name="D" unicode="D" horiz-adv-x="734" 
d="M206 143h97c136 0 234 95 234 232s-92 232 -228 232h-103c-4 0 -6 -2 -6 -6v-452c0 -4 2 -6 6 -6zM57 0v750h246c209 0 377 -171 377 -375s-168 -375 -377 -375h-246z" />
    <glyph glyph-name="E" unicode="E" horiz-adv-x="527" 
d="M200 299v-150c0 -4 2 -6 6 -6h263v-143h-412v750h412v-143h-263c-4 0 -6 -2 -6 -6v-147c0 -4 2 -6 6 -6h263v-143h-263c-4 0 -6 -2 -6 -6z" />
    <glyph glyph-name="F" unicode="F" horiz-adv-x="520" 
d="M57 0v750h413v-143h-264c-4 0 -6 -2 -6 -6v-147c0 -4 2 -6 6 -6h264v-143h-264c-4 0 -6 -2 -6 -6v-299h-143z" />
    <glyph glyph-name="G" unicode="G" horiz-adv-x="819" 
d="M422 408h327v-283c-59 -71 -158 -133 -311 -133c-212 0 -383 171 -383 383s171 383 383 383c146 0 248 -79 264 -93l-88 -114c-41 33 -116 64 -176 64c-132 0 -240 -108 -240 -240s108 -241 251 -241c71 0 124 20 155 47v86c0 2 -1 3 -4 3h-178v138z" />
    <glyph glyph-name="H" unicode="H" horiz-adv-x="656" 
d="M456 454v296h143v-750h-143v299c0 4 -2 6 -6 6h-244c-4 0 -6 -2 -6 -6v-299h-143v750h143v-296c0 -4 2 -6 6 -6h244c4 0 6 2 6 6z" />
    <glyph glyph-name="I" unicode="I" horiz-adv-x="257" 
d="M57 750h143v-750h-143v750z" />
    <glyph glyph-name="J" unicode="J" horiz-adv-x="471" 
d="M36 95l125 74c7 -23 29 -35 53 -35c35 0 63 29 63 65v551h143v-551c0 -116 -91 -207 -206 -207c-76 0 -143 39 -178 103z" />
    <glyph glyph-name="L" unicode="L" horiz-adv-x="500" 
d="M212 143h239v-143h-394v751h143v-596c0 -8 4 -12 12 -12z" />
    <glyph glyph-name="N" unicode="N" horiz-adv-x="711" 
d="M57 749l134 1l320 -475v474h143v-749h-133l-321 475v-475h-143v749z" />
    <glyph glyph-name="O" unicode="O" horiz-adv-x="876" 
d="M55 375c0 212 171 383 383 383s383 -171 383 -383s-171 -383 -383 -383s-383 171 -383 383zM198 375c0 -132 108 -240 240 -240s240 108 240 240s-108 240 -240 240s-240 -108 -240 -240z" />
    <glyph glyph-name="Q" unicode="Q" horiz-adv-x="876" 
d="M55 375c0 212 171 383 383 383s383 -171 383 -383c0 -89 -30 -170 -81 -235l58 -55l-106 -95l-58 55c-59 -35 -124 -53 -196 -53c-212 0 -383 171 -383 383zM198 375c0 -132 108 -240 240 -240c31 0 62 6 93 19l-64 66l100 95l70 -73c27 39 41 84 41 133
c0 132 -108 240 -240 240s-240 -108 -240 -240z" />
    <glyph glyph-name="T" unicode="T" horiz-adv-x="583" 
d="M362 0h-143v602c0 1 0 1 -1 2c-2 2 -3 3 -4 3h-161v143h477v-143h-162l-6 -5v-602z" />
    <glyph glyph-name="V" unicode="V" horiz-adv-x="690" 
d="M511 750h155l-267 -750h-109l-263 750h153l162 -494c0 -1 0 -1 1 -2c0 -1 1 -2 2 -2l2 2c0 1 0 1 1 2z" />
    <glyph glyph-name="Y" unicode="Y" horiz-adv-x="594" 
d="M16 750h158l120 -300c1 -2 2 -3 3 -3s2 1 3 3l121 299h156l-208 -479v-270h-143v270z" />
    <glyph glyph-name="Z" unicode="Z" horiz-adv-x="586" 
d="M352 590c2 4 3 7 3 9c0 5 -6 8 -17 8h-282v143h472v-111c1 -1 -297 -472 -298 -488c0 -5 6 -8 17 -8h281v-143h-472v110c56 89 106 169 149 240c75 120 147 240 147 240z" />
    <glyph glyph-name="underscore" unicode="_" horiz-adv-x="670" 
d="M0 -64h670v-71h-670v71z" />
    <glyph glyph-name="bar" unicode="|" horiz-adv-x="228" 
d="M171 750v-750h-114v750h114z" />
    <glyph glyph-name="currency" unicode="&#xa4;" horiz-adv-x="705" 
d="M57 109l96 97c-27 39 -43 87 -43 135c0 51 20 93 45 136l-99 98l61 61l99 -99c47 27 85 44 140 44c49 0 90 -20 131 -44l99 98l61 -60l-97 -97c27 -41 45 -87 45 -138c0 -49 -18 -91 -43 -134l97 -97l-60 -61l-97 97c-43 -31 -90 -46 -141 -46c-48 0 -96 21 -137 45
l-97 -96zM353 483c-77 0 -141 -66 -141 -142s64 -141 141 -141s140 64 140 141c0 76 -63 142 -140 142z" />
    <glyph glyph-name="yen" unicode="&#xa5;" horiz-adv-x="664" 
d="M519 535h92v-81h-127l-41 -94h168v-81h-203l-4 -11v-268h-143v268l-5 11h-204v81h170l-42 94h-128v81h93l-93 215h157l120 -300c1 -2 2 -3 3 -3s2 1 3 3l120 299h156z" />
    <glyph glyph-name="brokenbar" unicode="&#xa6;" horiz-adv-x="227" 
d="M57 -10v312h114v-312h-114zM57 455v315h114v-315h-114z" />
    <glyph glyph-name="logicalnot" unicode="&#xac;" horiz-adv-x="630" 
d="M49 419h524v-341h-114v227h-410v114z" />
    <glyph glyph-name="degree" unicode="&#xb0;" horiz-adv-x="432" 
d="M55 563c0 89 72 161 161 161s161 -72 161 -161s-72 -161 -161 -161s-161 72 -161 161zM123 563c0 -51 42 -93 93 -93s93 42 93 93s-42 93 -93 93s-93 -42 -93 -93z" />
    <glyph glyph-name="periodcentered" unicode="&#xb7;" horiz-adv-x="227" 
d="M55 376c0 31 25 61 61 61c31 0 56 -30 56 -61s-25 -56 -56 -56c-36 0 -61 25 -61 56z" />
    <glyph glyph-name="multiply" unicode="&#xd7;" horiz-adv-x="574" 
d="M219 255l-134 134l81 80l133 -133l136 136l81 -81l-136 -136l134 -134l-80 -81l-135 135l-136 -137l-81 81z" />
    <glyph glyph-name="divide" unicode="&#xf7;" 
d="M50 313h500v-114h-500v114zM221 422c0 43 35 78 78 78s78 -35 78 -78s-35 -78 -78 -78s-78 35 -78 78zM221 90c0 43 35 78 78 78s78 -35 78 -78s-35 -78 -78 -78s-78 35 -78 78z" />
    <glyph glyph-name="dotaccent" unicode="&#x2d9;" horiz-adv-x="247" 
d="M57 677c0 39 28 68 67 68s68 -29 68 -68s-29 -67 -68 -67s-67 28 -67 67z" />
    <glyph glyph-name="ring" unicode="&#x2da;" horiz-adv-x="308" 
d="M55 678c0 56 43 99 99 99s99 -43 99 -99s-43 -99 -99 -99s-99 43 -99 99zM90 678c0 -35 29 -64 64 -64s64 29 64 64s-29 64 -64 64s-64 -29 -64 -64z" />
    <glyph glyph-name="endash" unicode="&#x2013;" horiz-adv-x="614" 
d="M56 344h501v-114h-501v114z" />
    <glyph glyph-name="emdash" unicode="&#x2014;" horiz-adv-x="790" 
d="M57 344h676v-114h-676v114z" />
    <glyph glyph-name="quoteleft" unicode="&#x2018;" horiz-adv-x="225" 
d="M40 750h116l18 -183l-79 -10z" />
    <glyph glyph-name="quoteright" unicode="&#x2019;" horiz-adv-x="225" 
d="M58 750h116l-55 -193l-79 10z" />
    <glyph glyph-name="quotesinglbase" unicode="&#x201a;" horiz-adv-x="225" 
d="M58 117h116l-55 -193l-79 10z" />
    <glyph glyph-name="quotedblleft" unicode="&#x201c;" horiz-adv-x="386" 
d="M40 750h116l18 -183l-79 -10zM197 750h116l18 -183l-79 -10z" />
    <glyph glyph-name="quotedblright" unicode="&#x201d;" horiz-adv-x="386" 
d="M215 750h116l-55 -193l-79 10zM58 750h116l-55 -193l-79 10z" />
    <glyph glyph-name="quotedblbase" unicode="&#x201e;" horiz-adv-x="386" 
d="M215 117h116l-55 -193l-79 10zM58 117h116l-55 -193l-79 10z" />
    <glyph glyph-name="bullet" unicode="&#x2022;" horiz-adv-x="350" 
d="M55 300c0 66 54 120 120 120s120 -54 120 -120s-54 -120 -120 -120s-120 54 -120 120z" />
    <glyph glyph-name="ellipsis" unicode="&#x2026;" horiz-adv-x="733" 
d="M57 52c0 31 25 61 61 61c31 0 56 -30 56 -61s-25 -56 -56 -56c-36 0 -61 25 -61 56zM308 52c0 31 25 61 61 61c31 0 56 -30 56 -61s-25 -56 -56 -56c-36 0 -61 25 -61 56zM559 52c0 31 25 61 61 61c31 0 56 -30 56 -61s-25 -56 -56 -56c-36 0 -61 25 -61 56z" />
    <glyph glyph-name="minus" unicode="&#x2212;" horiz-adv-x="570" 
d="M57 313h457v-114h-457v114z" />
    <glyph glyph-name="plus" unicode="+" 
d="M243 312v189h114v-189h192v-114h-192v-190h-114v190h-193v114h193z" />
    <glyph glyph-name="slash" unicode="/" horiz-adv-x="359" 
d="M102 -7l-61 8l216 756l60 -14z" />
    <glyph glyph-name="backslash" unicode="\" horiz-adv-x="360" 
d="M318 8l-59 -17l-218 752l59 18z" />
    <glyph glyph-name="asciicircum" unicode="^" horiz-adv-x="560" 
d="M280 606l-137 -253h-121l218 397h80l218 -397h-119z" />
    <glyph glyph-name="hungarumlaut" unicode="&#x2dd;" horiz-adv-x="599" 
d="M53 703l186 79l48 -106l-172 -70zM314 703l186 79l48 -106l-172 -70z" />
    <glyph glyph-name="guillemotleft" unicode="&#xab;" horiz-adv-x="521" 
d="M382 61l-137 213l132 211l96 -69l-95 -142l92 -140zM184 61l-137 213l132 211l96 -69l-95 -142l92 -140z" />
    <glyph glyph-name="guillemotright" unicode="&#xbb;" horiz-adv-x="521" 
d="M138 485l137 -213l-132 -211l-96 69l95 142l-92 140zM336 485l137 -213l-132 -211l-96 69l95 142l-92 140z" />
    <glyph glyph-name="macron" unicode="&#xaf;" horiz-adv-x="428" 
d="M56 730h315v-114h-315v114z" />
    <glyph glyph-name="plusminus" unicode="&#xb1;" horiz-adv-x="638" 
d="M262 391v123h114v-123h208v-114h-208v-123h-114v123h-208v114h208zM54 120h530v-114h-530v114z" />
    <glyph glyph-name="guilsinglleft" unicode="&#x2039;" horiz-adv-x="320" 
d="M47 272l137 213l88 -73l-92 -140l95 -142l-96 -69z" />
    <glyph glyph-name="guilsinglright" unicode="&#x203a;" horiz-adv-x="320" 
d="M138 485l137 -213l-132 -211l-96 69l95 142l-92 140z" />
    <glyph glyph-name="dieresis" unicode="&#xa8;" horiz-adv-x="453" 
d="M262 683c0 39 30 67 67 67c39 0 68 -28 68 -67c0 -37 -29 -67 -68 -67c-37 0 -67 30 -67 67zM56 683c0 39 29 67 68 67c37 0 67 -28 67 -67c0 -37 -30 -67 -67 -67c-39 0 -68 30 -68 67z" />
    <glyph glyph-name="braceleft" unicode="{" horiz-adv-x="387" 
d="M56 292v97c69 5 98 45 98 133v127c0 81 6 128 53 157c29 17 70 22 126 22l1 -86c-64 -5 -75 -35 -75 -110v-128c0 -92 -17 -138 -105 -162c-3 0 -4 -1 -4 -2s1 -2 4 -2c88 -24 105 -70 105 -162v-128c0 -75 11 -105 75 -110l-1 -86c-56 0 -97 5 -126 22
c-48 29 -53 75 -53 157v127c0 88 -29 127 -98 134z" />
    <glyph glyph-name="braceright" unicode="}" horiz-adv-x="392" 
d="M334 389v-97c-69 -7 -98 -46 -98 -134v-127c0 -82 -5 -128 -53 -157c-29 -17 -70 -22 -126 -22l-1 86c64 5 75 35 75 110v128c0 92 17 138 105 162c3 0 4 1 4 2s-1 2 -4 2c-88 24 -105 70 -105 162v128c0 75 -11 105 -75 110l1 86c56 0 97 -5 126 -22
c47 -29 53 -76 53 -157v-127c0 -88 29 -128 98 -133z" />
    <glyph glyph-name="parenleft" unicode="(" horiz-adv-x="343" 
d="M55 169v367c0 111 45 196 121 256l92 -100c-62 -62 -70 -104 -70 -191v-297c0 -87 8 -129 70 -191l-92 -100c-76 60 -121 145 -121 256z" />
    <glyph glyph-name="parenright" unicode=")" horiz-adv-x="343" 
d="M288 536v-367c0 -111 -45 -196 -121 -256l-92 100c62 62 70 104 70 191v297c0 87 -8 129 -70 191l92 100c76 -60 121 -145 121 -256z" />
    <glyph glyph-name="perthousand" unicode="&#x2030;" horiz-adv-x="1299" 
d="M311 12c-7 -11 -16 -16 -29 -16c-19 0 -34 15 -34 34c0 6 2 12 5 19l348 683c5 13 18 23 33 23c19 0 34 -15 34 -34c0 -6 -2 -12 -6 -19c-348 -684 -351 -689 -351 -690zM601 180c0 -45 36 -81 81 -81s81 36 81 81s-36 81 -81 81s-81 -36 -81 -81zM502 180
c0 100 80 180 180 180s180 -80 180 -180s-80 -180 -180 -180s-180 80 -180 180zM154 570c0 -45 36 -81 81 -81s81 36 81 81s-36 81 -81 81s-81 -36 -81 -81zM55 570c0 100 80 180 180 180s180 -80 180 -180s-80 -180 -180 -180s-180 80 -180 180zM986 180
c0 -45 36 -81 81 -81s81 36 81 81s-36 81 -81 81s-81 -36 -81 -81zM887 180c0 100 80 180 180 180s180 -80 180 -180s-80 -180 -180 -180s-180 80 -180 180z" />
    <glyph glyph-name="percent" unicode="%" horiz-adv-x="915" 
d="M298 -12l-58 37l372 729l61 -30c-348 -685 -375 -734 -375 -736zM600 180c0 -45 36 -81 81 -81s81 36 81 81s-36 81 -81 81s-81 -36 -81 -81zM501 180c0 100 80 180 180 180s180 -80 180 -180s-80 -180 -180 -180s-180 80 -180 180zM153 570c0 -45 36 -81 81 -81
s81 36 81 81s-36 81 -81 81s-81 -36 -81 -81zM54 570c0 100 80 180 180 180s180 -80 180 -180s-80 -180 -180 -180s-180 80 -180 180z" />
    <glyph glyph-name="paragraph" unicode="&#xb6;" horiz-adv-x="654" 
d="M275 -212v575c-145 0 -223 63 -223 171c0 144 107 178 246 178h299v-924h-114v809h-94v-809h-114z" />
    <glyph glyph-name="mu" unicode="&#xb5;" horiz-adv-x="582" 
d="M57 -218v756h143v-306c0 -60 45 -93 93 -93s93 33 93 93v306h143v-539l-145 64c-21 -53 -62 -67 -92 -67c-31 0 -71 13 -92 42v-256h-143z" />
    <glyph glyph-name="mu" unicode="&#x3bc;" horiz-adv-x="582" 
d="M57 -218v756h143v-306c0 -60 45 -93 93 -93s93 33 93 93v306h143v-539l-145 64c-21 -53 -62 -67 -92 -67c-31 0 -71 13 -92 42v-256h-143z" />
    <glyph glyph-name="copyright" unicode="&#xa9;" horiz-adv-x="835" 
d="M55 360c0 200 166 363 363 363c203 0 362 -163 362 -363c0 -198 -159 -362 -362 -362c-197 0 -363 164 -363 362zM110 360c0 -171 137 -307 308 -307c170 0 312 136 312 307s-142 308 -312 308c-171 0 -308 -137 -308 -308zM423 470c-61 0 -110 -49 -110 -108
c0 -61 49 -110 110 -110c27 0 53 5 72 21l49 -60c-33 -28 -77 -39 -121 -39c-105 0 -188 83 -188 186c0 105 83 188 188 188c44 0 88 -11 121 -39l-49 -60c-19 16 -45 21 -72 21z" />
    <glyph glyph-name="registered" unicode="&#xae;" horiz-adv-x="875" 
d="M55 375c0 209 174 383 382 383c215 0 383 -174 383 -383s-168 -383 -383 -383c-208 0 -382 174 -382 383zM113 375c0 -180 145 -325 324 -325c180 0 331 145 331 325s-151 325 -331 325c-179 0 -324 -145 -324 -325zM396 525v-125c0 -3 1 -4 4 -4h50c37 0 56 33 56 68
c0 33 -19 64 -56 64h-50c-3 0 -4 -1 -4 -3zM593 151h-89c-88 150 -105 174 -105 174c-2 0 -3 -1 -3 -2v-172h-77v446h134c83 0 131 -57 131 -133c0 -75 -39 -122 -99 -129c-1 0 -1 -1 -1 -3z" />
    <glyph glyph-name="dagger" unicode="&#x2020;" horiz-adv-x="672" 
d="M270 -187v595h-222v120h222v221h132v-221h221v-120h-221v-595h-132z" />
    <glyph glyph-name="daggerdbl" unicode="&#x2021;" horiz-adv-x="674" 
d="M271 -184v399h-222v120h222v73h-222v120h222v222h132v-222h221v-120h-221v-73h221v-120h-221v-399h-132z" />
    <glyph glyph-name="acute" unicode="&#xb4;" horiz-adv-x="339" 
d="M53 687l186 79l48 -106l-172 -70z" />
    <glyph glyph-name="grave" unicode="`" horiz-adv-x="339" 
d="M101 766l186 -79l-62 -97l-172 70z" />
    <glyph glyph-name="breve" unicode="&#x2d8;" horiz-adv-x="420" 
d="M28 686l90 72l3 -3c16 -16 45 -47 89 -47s63 34 83 51l90 -76c-24 -47 -93 -89 -173 -89c-85 0 -158 42 -182 92z" />
    <glyph glyph-name="caron" unicode="&#x2c7;" horiz-adv-x="397" 
d="M198 603l-150 58l63 97l87 -33l89 39l64 -97z" />
    <glyph glyph-name="cedilla" unicode="&#xb8;" horiz-adv-x="308" 
d="M136 0h60l-39 -51c7 0 15 3 22 3c43 0 75 -28 75 -76c0 -65 -62 -94 -111 -94c-17 0 -67 6 -86 17v63c7 -3 15 -5 22 -7c13 -4 28 -7 41 -7h9c16 0 29 5 29 28c0 27 -17 28 -34 28h-57z" />
    <glyph glyph-name="tilde" unicode="&#x2dc;" horiz-adv-x="444" 
d="M55 604l1 121c14 6 49 29 95 29s94 -25 124 -25c41 0 80 20 113 41v-109c-15 -10 -48 -46 -98 -46c-40 0 -96 26 -136 26c-36 0 -78 -9 -99 -37z" />
    <glyph glyph-name="Oslash" unicode="&#xd8;" horiz-adv-x="876" 
d="M344 -47h-71l21 67c-141 56 -239 194 -239 355c0 212 171 383 383 383c23 0 45 -2 67 -6l15 48h69l-18 -66c147 -53 250 -195 250 -359c0 -212 -171 -383 -383 -383c-26 0 -52 3 -79 8zM438 135c132 0 240 108 240 240c0 100 -60 184 -147 221l-132 -458
c12 -2 25 -3 39 -3zM198 375c0 -96 56 -176 136 -216l131 454c-9 1 -18 2 -27 2c-132 0 -240 -108 -240 -240z" />
    <glyph glyph-name="circumflex" unicode="&#x2c6;" horiz-adv-x="398" 
d="M48 706l150 58l153 -64l-64 -97l-89 39l-87 -33z" />
    <glyph glyph-name="asciitilde" unicode="~" horiz-adv-x="630" 
d="M54 173l1 121c14 6 80 34 149 34h4c65 -2 174 -38 202 -38h5c61 2 112 21 160 40v-109c-12 -12 -81 -42 -158 -45h-11c-54 0 -108 37 -192 39h-7c-39 0 -76 -10 -153 -42z" />
    <glyph glyph-name="bracketleft" unicode="[" horiz-adv-x="355" 
d="M59 -147l-2 963h244v-120h-96c-3 0 -5 -2 -5 -6v-711c0 -4 2 -6 5 -6h96v-120h-242z" />
    <glyph glyph-name="bracketright" unicode="]" horiz-adv-x="355" 
d="M301 816l-2 -963h-242v120h96c3 0 5 2 5 6v711c0 4 -2 6 -5 6h-96v120h244z" />
    <glyph glyph-name="M" unicode="M" horiz-adv-x="874" 
d="M436 226l191 524h191v-750h-141v493c0 3 -3 4 -187 -493h-109l-177 497v-497h-147v750h188z" />
    <glyph glyph-name="X" unicode="X" horiz-adv-x="658" 
d="M417 369l230 -369h-170l-143 233c-1 2 -3 3 -5 3c-3 0 -4 -1 -5 -3l-145 -233h-167l229 369c1 3 2 5 2 6c0 3 -1 3 -2 6l-228 370h168l144 -235c1 -2 2 -3 4 -3c1 0 3 1 4 3l144 234h170l-230 -369c-1 -2 -2 -4 -2 -6c0 -3 1 -5 2 -6z" />
    <glyph glyph-name="W" unicode="W" horiz-adv-x="934" 
d="M690 0h-114c-96 371 -111 428 -111 424l-109 -424h-112l-202 750h149c96 -376 107 -425 108 -425s2 1 3 2l111 423h112c96 -376 107 -425 108 -425s2 1 3 2l108 423h149z" />
    <glyph glyph-name="P" unicode="P" horiz-adv-x="556" 
d="M200 601v-157c0 -4 2 -6 6 -6h82c59 0 75 55 75 87c0 31 -16 82 -75 82h-82c-4 0 -6 -2 -6 -6zM57 0l1 750h230c128 0 218 -98 218 -225s-90 -230 -218 -230h-82c-4 0 -6 -2 -6 -6v-289h-143z" />
    <glyph glyph-name="R" unicode="R" horiz-adv-x="595" 
d="M200 601v-173c0 -4 2 -6 6 -6h86c53 0 84 43 84 93c0 49 -31 92 -84 92h-86c-4 0 -6 -2 -6 -6zM408 0l-155 288c-2 4 -5 6 -9 6h-38c-4 0 -6 -2 -6 -6v-288h-143v750h235c140 0 226 -108 226 -235c0 -69 -21 -116 -67 -162c-18 -18 -38 -28 -51 -36c-1 0 -2 -2 0 -5
l172 -312h-164z" />
    <glyph glyph-name="K" unicode="K" horiz-adv-x="583" 
d="M57 0v750h143c0 -259 0 -325 1 -325s2 1 3 2l201 323h163l-226 -369c-1 -2 -2 -4 -2 -6c0 -3 1 -5 2 -6l230 -369h-168c-166 268 -204 329 -204 326v-326h-143z" />
    <glyph glyph-name="U" unicode="U" horiz-adv-x="607" 
d="M56 213v536h143v-516c0 -59 59 -95 107 -95c53 0 102 40 102 91v520h143v-536c0 -128 -118 -218 -245 -218c-128 0 -250 90 -250 218z" />
    <glyph glyph-name="S" unicode="S" horiz-adv-x="539" 
d="M55 150l114 49c20 -33 45 -65 98 -65c43 0 74 36 74 76c0 71 -51 87 -105 108c-102 39 -180 97 -180 215c0 135 86 223 219 223c73 0 160 -42 186 -124l-129 -62c-16 35 -46 42 -66 42c-37 0 -67 -36 -67 -73c0 -36 36 -66 78 -84c27 -11 79 -34 100 -47
c75 -45 107 -102 107 -198c0 -121 -94 -218 -211 -218h-9c-103 0 -181 68 -209 158z" />
    <glyph glyph-name="B" unicode="B" horiz-adv-x="571" 
d="M289 0h-232v750h215c4 0 7 0 9 -1c111 -8 192 -95 192 -202c0 -51 -16 -96 -43 -132c53 -43 87 -107 87 -182c0 -128 -101 -230 -228 -233zM206 143h78c51 0 90 45 90 96c0 52 -39 95 -90 95h-78c-4 0 -6 -2 -6 -6v-179c0 -4 2 -6 6 -6zM336 534c0 39 -31 73 -74 73h-56
c-4 0 -6 -2 -6 -6v-138c0 -4 2 -6 6 -6h62c40 3 68 38 68 77z" />
    <glyph glyph-name="dollar" unicode="$" horiz-adv-x="535" 
d="M53 150l132 22c21 -35 55 -38 80 -38c43 0 74 36 74 76c0 74 -42 86 -104 107c-103 34 -181 107 -181 216c0 117 61 197 165 217v94h114v-97c56 -17 107 -55 126 -115l-129 -62c-17 34 -46 42 -66 42c-37 0 -67 -36 -67 -73c0 -57 67 -79 106 -95c20 -8 38 -16 54 -25
c88 -47 125 -105 125 -209c0 -99 -63 -182 -149 -209v-93h-114v89c-91 6 -154 61 -166 153z" />
    <glyph glyph-name="at" unicode="@" horiz-adv-x="910" 
d="M520 331l18 71c2 10 3 20 3 29c0 51 -35 75 -74 75c-73 0 -131 -87 -131 -189c0 -59 24 -92 73 -92c48 0 95 42 111 106zM520 244c-33 -48 -71 -73 -130 -73c-88 0 -136 54 -136 146c0 140 92 242 203 242c55 0 88 -19 107 -63l24 49h68l-63 -252c-4 -15 -5 -20 -5 -25
c0 -19 15 -34 39 -34c29 0 63 14 92 49c44 44 63 102 63 170c0 140 -111 234 -291 234c-195 0 -363 -147 -363 -344c0 -163 144 -281 329 -281c97 0 190 16 267 71l29 -39c-87 -68 -184 -102 -291 -102c-208 0 -407 124 -407 359s200 407 441 407c176 0 359 -103 359 -305
c0 -93 -39 -174 -107 -233c-39 -29 -87 -49 -135 -49c-47 0 -90 17 -93 73z" />
    <glyph glyph-name="ampersand" unicode="&#x26;" horiz-adv-x="723" 
d="M631 442l-95 -184c-2 -3 -3 -6 -3 -9s1 -6 3 -8l155 -143l-87 -98c-48 43 -109 100 -137 125l-9 -19c-39 -70 -113 -114 -192 -114c-128 0 -231 100 -231 225c0 88 46 160 127 211c-50 38 -75 89 -75 152c0 97 86 178 185 178c97 0 177 -81 177 -178
c0 -72 -41 -126 -98 -163l80 -78l83 161zM165 221c0 -56 43 -99 99 -99c55 0 87 62 100 89l3 6l-125 117c-37 -21 -77 -62 -77 -113zM217 575c-1 -38 50 -75 50 -74c26 5 53 49 53 74c0 28 -23 51 -51 51c-29 0 -52 -23 -52 -51z" />
    <glyph glyph-name="sterling" unicode="&#xa3;" horiz-adv-x="648" 
d="M99 0v144h60c24 0 46 17 46 59c0 23 -33 89 -66 128h-83v120h49c-5 23 -11 45 -11 68c0 137 102 239 239 239c79 0 139 -26 184 -71l-107 -96c-17 17 -47 23 -75 23c-56 0 -97 -41 -97 -87c0 -23 5 -41 22 -76h204v-120h-158c24 -40 43 -76 43 -121c0 -35 -5 -43 -16 -65
h42c60 0 85 25 88 82h131c0 -131 -105 -227 -245 -227h-250z" />
    <glyph glyph-name="one" unicode="1" 
d="M151 616v135h262v-751h-143v610c0 4 -2 6 -6 6h-113z" />
    <glyph glyph-name="zero" unicode="0" 
d="M555 503v-256c0 -136 -114 -255 -255 -255s-255 119 -255 255v256c0 136 114 255 255 255s255 -119 255 -255zM187 501v-252c0 -59 52 -113 113 -113s112 54 112 113v252c0 59 -51 113 -112 113s-113 -54 -113 -113z" />
    <glyph glyph-name="two" unicode="2" 
d="M86 0l-43 100l265 255c78 70 102 121 102 171c0 45 -34 96 -97 96c-56 0 -107 -51 -132 -104l-99 89c48 83 122 151 234 151c151 0 238 -104 238 -235c0 -88 -49 -166 -157 -266l-123 -113c-1 -1 -2 -2 -2 -3s1 -2 3 -2h278v-139h-467z" />
    <glyph glyph-name="trademark" unicode="&#x2122;" horiz-adv-x="866" 
d="M582 440l110 311h117v-451h-85v297c0 3 -1 4 -4 4s-4 -1 -5 -4c-2 -5 -26 -79 -53 -151l-51 -146h-64l-50 146c-24 72 -51 146 -51 151c-1 0 -2 1 -3 1s-1 -1 -2 -1h-1v-296h-89v450h115l110 -311c1 -2 2 -3 3 -3c2 0 3 1 3 3zM241 299h-86v365c0 1 -1 2 -3 2h-98v86h288
v-86h-98l-3 -3v-364z" />
    <glyph glyph-name="three" unicode="3" 
d="M173 563l-56 115c55 54 118 80 184 80c126 0 202 -84 202 -186c0 -60 -33 -113 -75 -146c-3 -3 -3 -4 -3 -5c0 -2 2 -2 5 -4c74 -36 115 -107 115 -190c0 -129 -97 -233 -238 -233c-79 0 -147 33 -200 84l68 123c37 -38 81 -67 128 -67c55 0 101 37 101 96
c0 66 -57 104 -123 112l-52 2v123l34 2c54 4 99 41 99 90c0 29 -25 63 -70 63c-43 0 -81 -22 -119 -59z" />
    <glyph glyph-name="four" unicode="4" 
d="M46 121v141c55 89 105 169 150 240c75 121 153 242 155 247h146v-488h70v-145h-70v-116h-143v115c0 4 -2 6 -6 6h-302zM350 512l-146 -251c-1 -1 -1 -2 -1 -3c0 -3 1 -4 3 -4h142c4 0 6 2 6 6c0 253 0 254 -1 254s-2 -1 -3 -2z" />
    <glyph glyph-name="five" unicode="5" 
d="M141 750h354v-141h-245c-3 0 -6 -2 -7 -6l-23 -113c0 -1 0 -2 1 -3h4c22 6 45 12 87 12c151 0 242 -110 242 -246c0 -142 -112 -261 -260 -261c-88 0 -140 25 -206 78l50 136c49 -45 105 -71 153 -71c76 0 122 55 122 115c0 59 -49 115 -117 115c-36 0 -69 -10 -97 -26
c-14 -8 -27 -16 -38 -24l-83 86c0 7 1 12 2 19z" />
    <glyph glyph-name="six" unicode="6" 
d="M34 258c0 49 11 95 36 134l233 371l121 -77l-109 -168c-1 -1 -1 -2 -1 -3s1 -2 2 -2c140 -13 250 -112 250 -255c0 -147 -119 -266 -266 -266s-266 119 -266 266zM177 258c0 -72 51 -123 123 -123c69 0 123 51 123 123c0 69 -54 123 -123 123c-72 0 -123 -54 -123 -123z
" />
    <glyph glyph-name="nine" unicode="9" 
d="M566 489c0 -49 -11 -95 -36 -134l-233 -367l-121 77l109 164c1 1 1 2 1 3s-1 2 -2 2c-140 13 -250 112 -250 255c0 147 119 266 266 266s266 -119 266 -266zM423 489c0 72 -51 123 -123 123c-69 0 -123 -51 -123 -123c0 -69 54 -123 123 -123c72 0 123 54 123 123z" />
    <glyph glyph-name="twosuperior" unicode="&#xb2;" horiz-adv-x="359" 
d="M56 300l-1 104c7 11 161 150 175 161c13 12 22 31 22 47c0 33 -25 60 -60 60c-27 0 -49 -18 -57 -42l-81 28c19 59 74 100 138 100c81 0 147 -65 147 -146c0 -43 -17 -76 -48 -107c-11 -11 -44 -39 -76 -66l-61 -51c0 -1 1 -2 2 -2h184v-86h-284z" />
    <glyph glyph-name="threesuperior" unicode="&#xb3;" horiz-adv-x="358" 
d="M105 637l-33 66c20 35 55 56 98 56c61 0 113 -51 113 -114c0 -27 -9 -51 -27 -71c-1 -1 -2 -2 -2 -3s1 -2 2 -2c41 -28 69 -72 69 -127c0 -81 -65 -148 -148 -148c-49 0 -91 24 -119 63c-12 16 -22 40 -22 64l80 11c7 -31 31 -51 62 -51c35 0 61 31 61 68
c0 35 -25 63 -56 71l-41 11v64l38 10c15 4 23 12 23 36c0 19 -14 34 -33 34c-17 0 -33 -10 -45 -19c-7 -6 -14 -12 -20 -19z" />
    <glyph glyph-name="seven" unicode="7" 
d="M83 610v140h424l30 -95l-294 -667l-131 57l247 561c0 3 -1 4 -4 4h-272z" />
    <glyph glyph-name="eight" unicode="8" 
d="M89 546c0 116 95 211 211 211s211 -95 211 -211c0 -53 -27 -92 -59 -128c49 -41 95 -104 95 -180c0 -136 -111 -247 -247 -247s-247 111 -247 247c0 76 45 140 94 180c-32 36 -58 75 -58 128zM195 238c0 -59 46 -105 105 -105s104 46 104 105s-45 104 -104 104
s-105 -45 -105 -104zM230 546c0 -39 31 -70 70 -70s69 31 69 70s-30 69 -69 69s-70 -30 -70 -69z" />
    <glyph glyph-name="fraction" unicode="&#x2044;" horiz-adv-x="542" 
d="M87 -27l-53 28l414 765l54 -30z" />
    <glyph glyph-name="onesuperior" unicode="&#xb9;" horiz-adv-x="241" 
d="M-23 669v81h158v-450h-86v366c0 2 -1 3 -4 3h-68z" />
    <glyph glyph-name="ordmasculine" unicode="&#xba;" horiz-adv-x="414" 
d="M35 551c0 95 77 172 174 172c95 0 172 -77 172 -172c0 -97 -77 -174 -172 -174c-97 0 -174 77 -174 174zM127 551c0 -47 35 -82 82 -82c45 0 81 35 81 82c0 45 -36 81 -81 81c-47 0 -82 -36 -82 -81z" />
    <glyph glyph-name="ogonek" unicode="&#x2db;" horiz-adv-x="299" 
d="M165 0h69c-35 -19 -84 -67 -84 -113c0 -24 13 -38 36 -38c11 0 26 4 38 8l21 8v-52c-18 -13 -66 -31 -99 -31c-55 0 -92 32 -92 84c0 61 67 116 111 134z" />
    <glyph glyph-name="section" unicode="&#xa7;" horiz-adv-x="643" 
d="M315 758c60 0 128 -18 180 -67v-152c-15 16 -31 30 -48 43c-31 23 -70 44 -114 44c-39 0 -74 -28 -74 -69c0 -57 83 -61 166 -104c83 -35 164 -77 164 -170c0 -88 -39 -130 -106 -178c27 -35 43 -62 43 -105c0 -116 -102 -184 -211 -184c-113 0 -176 47 -213 92
c-22 27 -37 57 -46 92h163c6 -10 13 -19 20 -26c13 -13 33 -26 58 -26c32 0 73 20 73 57c0 57 -79 75 -157 107c-79 32 -158 74 -158 181c0 77 29 124 89 172c-31 33 -47 58 -47 105c0 120 101 188 218 188zM256 243l126 -53c29 17 51 37 51 73s-34 60 -74 75l-110 43
c-24 -19 -44 -40 -44 -71c0 -33 19 -52 51 -67z" />
    <glyph glyph-name="Eth" unicode="&#xd0;" horiz-adv-x="834" 
d="M155 0l1 299h-102v114h102v337h246c209 0 377 -171 377 -375s-168 -375 -377 -375h-247zM299 413h103v-114h-103v-150c0 -4 2 -6 6 -6h97c136 0 234 95 234 232s-92 232 -228 232h-103c-4 0 -6 -2 -6 -6v-188z" />
    <glyph glyph-name="Lslash" unicode="&#x141;" horiz-adv-x="598" 
d="M295 143h251v-143h-394v245l-64 -64l-81 81l145 145v343h143v-200l85 85l81 -81l-166 -166v-245z" />
    <glyph glyph-name="germandbls" unicode="&#xdf;" horiz-adv-x="560" 
d="M258 750h14c112 0 201 -98 201 -203c0 -51 -16 -96 -43 -132c53 -43 87 -107 87 -182c0 -127 -92 -233 -219 -233h-71v143h65c52 0 82 45 82 96c0 52 -48 95 -94 95v123c40 3 56 38 56 77s-31 73 -74 73c-61 0 -62 -51 -62 -55v-552h-143v552c0 112 99 198 201 198z" />
    <glyph glyph-name="quotedbl" unicode="&#x22;" horiz-adv-x="412" 
d="M241 461v289h114v-289h-114zM57 461v289h114v-289h-114z" />
    <glyph glyph-name="numbersign" unicode="#" horiz-adv-x="704" 
d="M200 299l16 114h-134v96h148l29 208h96l-29 -208h96l29 208h96l-29 -208h135v-96h-149l-16 -114h135v-96h-149l-29 -203h-96c0 14 8 46 29 203h-96l-29 -203h-96c0 14 8 46 29 203h-134v96h148zM313 413l-16 -114h95l16 114h-95z" />
    <glyph glyph-name="quotesingle" unicode="'" horiz-adv-x="226" 
d="M56 461v289h114v-289h-114z" />
    <glyph glyph-name="a" unicode="a" horiz-adv-x="587" 
d="M161 250c0 -70 54 -124 123 -124s123 54 123 124s-54 124 -123 124s-123 -54 -123 -124zM419 500h124v-500h-124v29c-40 -25 -86 -37 -135 -37c-141 0 -258 117 -258 258s117 258 258 258c49 0 96 -14 135 -38v30z" />
    <glyph glyph-name="i" unicode="i" horiz-adv-x="226" 
d="M45 0v501h136v-501h-136zM45 610c0 36 30 68 69 68c36 0 68 -32 68 -68c0 -39 -32 -69 -68 -69c-39 0 -69 30 -69 69z" />
    <glyph glyph-name="l" unicode="l" horiz-adv-x="226" 
d="M45 0v700h136v-700h-136z" />
    <glyph glyph-name="b" unicode="b" horiz-adv-x="602" 
d="M428 250c0 70 -54 124 -123 124s-123 -54 -123 -124s54 -124 123 -124s123 54 123 124zM174 0h-129v701h136v-225c36 20 77 32 124 32c141 0 258 -117 258 -258s-117 -258 -258 -258c-46 0 -93 13 -131 33v-25z" />
    <glyph glyph-name="d" unicode="d" horiz-adv-x="606" 
d="M180 250c0 -70 54 -124 123 -124s123 54 123 124s-54 124 -123 124s-123 -54 -123 -124zM434 0v28c-36 -20 -79 -36 -131 -36c-141 0 -258 117 -258 258s117 258 258 258c47 0 88 -12 124 -32v224h136v-700h-129z" />
    <glyph glyph-name="p" unicode="p" horiz-adv-x="601" 
d="M428 250c0 70 -54 124 -123 124s-123 -54 -123 -124s54 -124 123 -124s123 54 123 124zM45 -205v705h129v-27c36 20 79 35 131 35c141 0 258 -117 258 -258s-117 -258 -258 -258c-47 0 -88 12 -124 32v-229h-136z" />
    <glyph glyph-name="q" unicode="q" horiz-adv-x="606" 
d="M180 250c0 -70 54 -124 123 -124s123 54 123 124s-54 124 -123 124s-123 -54 -123 -124zM434 500h129v-705h-136v229c-36 -20 -77 -32 -124 -32c-141 0 -258 117 -258 258s117 258 258 258c52 0 95 -14 131 -34v26z" />
    <glyph glyph-name="o" unicode="o" horiz-adv-x="582" 
d="M172 251c0 -68 54 -122 122 -122c67 0 121 54 121 122c0 67 -54 121 -121 121c-68 0 -122 -54 -122 -121zM35 251c0 142 115 257 259 257c142 0 257 -115 257 -257c0 -144 -115 -259 -257 -259c-144 0 -259 115 -259 259z" />
    <glyph glyph-name="c" unicode="c" horiz-adv-x="550" 
d="M294 508c87 0 172 -51 212 -113l-101 -75c-25 22 -50 52 -109 52c-68 0 -122 -54 -122 -121c0 -68 54 -122 122 -122c47 0 77 22 108 65l119 -60c-44 -84 -129 -142 -229 -142c-144 0 -259 115 -259 259c0 142 115 257 259 257z" />
    <glyph glyph-name="eth" unicode="&#xf0;" horiz-adv-x="640" 
d="M443 258c0 69 -51 123 -123 123c-69 0 -123 -54 -123 -123c0 -72 54 -123 123 -123c72 0 123 51 123 123zM453 669l-55 -38l152 -239c25 -39 36 -85 36 -134c0 -147 -119 -266 -266 -266s-266 119 -266 266c0 143 110 242 250 255c1 0 2 1 2 2s0 2 -1 3l-21 31l-50 -36
l-66 94l51 37l-27 39l112 83l32 -39l52 36z" />
    <glyph glyph-name="oslash" unicode="&#xf8;" horiz-adv-x="582" 
d="M232 -62h-61l19 75c-93 40 -155 130 -155 238c0 142 115 257 259 257c13 0 26 -1 39 -3l17 56h64l-21 -73c93 -40 158 -130 158 -237c0 -144 -115 -259 -257 -259c-16 0 -30 1 -45 4zM429 251c0 51 -28 96 -71 119l-74 -254h10c75 0 135 60 135 135zM159 251
c0 -51 26 -94 67 -117l73 252h-5c-75 0 -135 -60 -135 -135z" />
    <glyph glyph-name="cent" unicode="&#xa2;" horiz-adv-x="563" 
d="M338 594v-91c72 -13 133 -57 168 -108l-98 -70c-19 19 -35 43 -70 54v-256c26 10 49 28 69 55c3 3 5 6 7 10l109 -54c-39 -72 -105 -123 -185 -138v-81h-114v86c-110 30 -189 130 -189 250c0 118 79 217 189 247v96h114zM159 251c0 -51 26 -93 65 -116v232
c-39 -24 -65 -67 -65 -116z" />
    <glyph glyph-name="exclam" unicode="!" horiz-adv-x="226" 
d="M182 750v-581h-136v581h136zM182 64c0 -36 -30 -68 -69 -68c-36 0 -68 32 -68 68c0 39 32 69 68 69c39 0 69 -30 69 -69z" />
    <glyph glyph-name="ordfeminine" unicode="&#xaa;" horiz-adv-x="420" 
d="M125 552c0 -47 35 -83 82 -83s83 36 83 83s-36 83 -83 83s-82 -36 -82 -83zM34 552c0 96 77 173 173 173c33 0 63 -10 90 -26l1 26h84v-341l-85 20c-27 -17 -57 -25 -90 -25c-96 0 -173 77 -173 173z" />
    <glyph glyph-name="thorn" unicode="&#xfe;" horiz-adv-x="601" 
d="M428 250c0 70 -54 124 -123 124s-123 -54 -123 -124s54 -124 123 -124s123 54 123 124zM45 -207v907h136v-223c35 19 76 31 124 31c141 0 258 -117 258 -258s-117 -258 -258 -258c-47 0 -88 12 -124 32v-231h-136z" />
    <glyph glyph-name="dotlessi" unicode="&#x131;" horiz-adv-x="210" 
d="M45 0v500h121v-500h-121z" />
    <glyph glyph-name="e" unicode="e" horiz-adv-x="533" 
d="M300 116c50 0 89 16 135 40l55 -97c-67 -48 -121 -67 -203 -67c-150 0 -259 109 -259 259c0 142 110 256 252 256c149 0 229 -102 229 -246c0 -21 -1 -37 -3 -57h-327c-2 0 -3 -2 -3 -5c15 -49 63 -83 124 -83zM275 388c-27 0 -54 -13 -72 -31c-20 -20 -29 -43 -29 -50
c0 -2 1 -3 4 -3h189c3 0 4 1 4 2c0 14 -6 39 -22 55s-37 27 -74 27z" />
    <glyph glyph-name="f" unicode="f" horiz-adv-x="425" 
d="M111 500v48c0 92 57 154 155 154h89v-118h-53c-42 0 -55 -24 -55 -57v-27h145v-122h-145v-378h-136v378h-81v122h81z" />
    <glyph glyph-name="t" unicode="t" horiz-adv-x="432" 
d="M151 500v144h136v-144h115v-122h-115v-378h-136v378h-118v122h118z" />
    <glyph glyph-name="g" unicode="g" horiz-adv-x="608" 
d="M180 250c0 -70 54 -124 123 -124s123 54 123 124s-54 124 -123 124s-123 -54 -123 -124zM107 -155l85 91c24 -19 59 -39 98 -39c71 0 130 55 138 124c0 0 0 1 -1 2v1c-36 -20 -77 -32 -124 -32c-141 0 -258 117 -258 258s117 258 258 258c52 0 95 -14 131 -34v26h129
v-447c0 -152 -122 -278 -277 -278c-67 0 -132 27 -179 70z" />
    <glyph glyph-name="lslash" unicode="&#x142;" horiz-adv-x="446" 
d="M154 402v298h136v-162l59 59l81 -81l-140 -140v-376h-136v240l-59 -59l-81 81z" />
    <glyph glyph-name="h" unicode="h" horiz-adv-x="535" 
d="M181 701v-211c27 11 55 18 86 18c141 0 223 -80 223 -221v-287h-136v285c0 48 -39 87 -87 87s-87 -39 -87 -87v-285h-135v701h136z" />
    <glyph glyph-name="florin" unicode="&#x192;" horiz-adv-x="475" 
d="M277 378v-368c0 -89 -46 -144 -135 -144h-134v118h78c36 0 55 8 55 47v347h-108v122h108v58c0 89 46 144 135 144h136v-118h-80c-36 0 -55 -8 -55 -47v-37h163v-122h-163z" />
    <glyph glyph-name="n" unicode="n" horiz-adv-x="533" 
d="M44 0v500h124v-19c29 19 64 27 99 27c141 0 223 -80 223 -221v-287h-136v285c0 48 -39 87 -87 87c-47 0 -84 -34 -87 -81v-291h-136z" />
    <glyph glyph-name="u" unicode="u" horiz-adv-x="535" 
d="M490 500v-500h-127v19c-21 -16 -57 -27 -96 -27c-141 0 -223 80 -223 221v287h136v-285c0 -48 39 -87 87 -87c47 0 87 34 87 81v291h136z" />
    <glyph glyph-name="m" unicode="m" horiz-adv-x="844" 
d="M44 0v500h125v-18c23 15 54 26 98 26c65 0 116 -18 155 -50c39 33 91 50 155 50c141 0 223 -80 223 -221v-287h-136v285c0 48 -39 87 -87 87c-47 0 -87 -34 -87 -81v-291h-136v285c0 48 -39 87 -87 87c-47 0 -84 -34 -87 -81v-291h-136z" />
    <glyph glyph-name="j" unicode="j" horiz-adv-x="226" 
d="M45 610c0 36 30 68 69 68c36 0 68 -32 68 -68c0 -39 -32 -69 -68 -69c-39 0 -69 30 -69 69zM0 -225v135h33c8 3 12 12 12 27v565h136v-605c0 -89 -61 -122 -116 -122h-65z" />
    <glyph glyph-name="k" unicode="k" horiz-adv-x="468" 
d="M181 751v-452c0 -2 0 -3 1 -3s2 1 3 2l127 202h149l-152 -243c-1 -3 -2 -4 -2 -5s1 -3 2 -6l155 -246h-153c-56 89 -87 141 -106 170c-11 17 -18 29 -22 36c-1 0 -2 -2 -2 -5v-201h-136v751h136z" />
    <glyph glyph-name="r" unicode="r" horiz-adv-x="370" 
d="M44 0v500h127v-22c24 20 62 30 97 30h70v-137h-71c-47 0 -84 -33 -87 -80v-291h-136z" />
    <glyph glyph-name="v" unicode="v" horiz-adv-x="478" 
d="M320 500h146l-174 -500h-105l-174 500h145l79 -268v-2c0 -1 1 -2 2 -2l2 2c0 1 0 1 1 2z" />
    <glyph glyph-name="w" unicode="w" horiz-adv-x="721" 
d="M571 0h-115l-99 278l-45 -135c-24 -69 -46 -137 -49 -143h-116l-135 500h142c62 -249 68 -292 71 -292c1 0 2 1 3 2l79 289h106c72 -240 80 -286 83 -286c1 0 2 1 3 2l65 285h142z" />
    <glyph glyph-name="x" unicode="x" horiz-adv-x="515" 
d="M341 245l156 -245h-165l-70 136c-1 1 -3 2 -5 2c-3 0 -4 -1 -4 -2l-70 -136h-165l156 245c1 3 2 4 2 5s-1 3 -2 6l-153 244h162l70 -135c1 -2 2 -3 4 -3c1 0 3 1 4 3l70 135h162l-152 -244c-1 -1 -2 -3 -2 -6c0 -2 1 -4 2 -5z" />
    <glyph glyph-name="y" unicode="y" horiz-adv-x="477" 
d="M464 500l-241 -707h-145l88 250c1 2 1 5 1 9c0 3 0 6 -1 8l-153 440h146l78 -268c1 -1 1 -1 1 -2s0 -2 1 -2l2 2c0 1 0 1 1 2l78 268h144z" />
    <glyph glyph-name="s" unicode="s" horiz-adv-x="359" 
d="M29 100l94 57c11 -15 25 -35 50 -35c12 0 28 13 28 29c0 29 -34 44 -54 54c-36 18 -112 53 -112 152c0 92 57 151 149 151c70 0 114 -53 137 -111l-93 -49c-7 19 -17 31 -40 31c-12 0 -27 -11 -27 -27c0 -33 46 -46 89 -74c39 -26 76 -64 76 -138
c0 -83 -65 -148 -144 -148c-76 0 -126 51 -153 108z" />
    <glyph glyph-name="scaron" unicode="&#x161;" horiz-adv-x="359" 
d="M29 100l94 57c11 -15 25 -35 50 -35c12 0 28 13 28 29c0 29 -34 44 -54 54c-36 18 -112 53 -112 152c0 92 57 151 149 151c70 0 114 -53 137 -111l-93 -49c-7 19 -17 31 -40 31c-12 0 -27 -11 -27 -27c0 -33 46 -46 89 -74c39 -26 76 -64 76 -138
c0 -83 -65 -148 -144 -148c-76 0 -126 51 -153 108zM178 603l-150 58l63 97l87 -33l89 39l64 -97z" />
    <glyph glyph-name="asterisk" unicode="*" horiz-adv-x="441" 
d="M40 477v109l109 -25l-94 60l76 76l60 -95l-25 110h109l-25 -110l60 95l76 -76l-95 -60l110 25v-109l-110 25l95 -60l-76 -76l-60 94l25 -109h-109l25 110l-60 -95l-76 76l95 60z" />
    <glyph glyph-name="Euro" unicode="&#x20ac;" horiz-adv-x="602" 
d="M350 135c36 0 72 23 93 46l104 -98c-47 -54 -130 -91 -197 -91c-134 0 -232 93 -252 224c-1 4 -2 9 -2 13h-54v117h53v52h-53v111h54c0 5 1 9 2 14c17 106 102 223 252 223c67 0 161 -37 199 -94l-107 -88c-26 27 -54 50 -93 50c-48 0 -87 -27 -108 -86
c-1 -4 -3 -8 -4 -13l-1 -4h196v-113h-196v-54h197v-118h-193c0 -3 0 -7 1 -10c9 -42 59 -81 109 -81z" />
    <glyph glyph-name="z" unicode="z" horiz-adv-x="427" 
d="M208 350c3 3 4 6 4 8c0 5 -6 8 -17 8h-156v134h349v-102c2 0 -175 -243 -175 -256c0 -5 5 -7 15 -7h160v-135h-349v107l86 121c42 62 84 122 83 122z" />
    <glyph glyph-name="Thorn" unicode="&#xde;" horiz-adv-x="873" 
d="M200 463v-157c0 -4 2 -6 6 -6h82c59 0 75 55 75 87c0 31 -16 82 -75 82h-82c-4 0 -6 -2 -6 -6zM57 0v750h143v-139c36 0 85 1 88 1c128 0 218 -98 218 -225s-90 -230 -218 -230h-82c-4 0 -6 -2 -6 -5v-152h-143z" />
    <glyph glyph-name="question" unicode="?" horiz-adv-x="450" 
d="M269 64c0 -36 -30 -68 -69 -68c-36 0 -68 32 -68 68c0 39 32 69 68 69c39 0 69 -30 69 -69zM266 173l-140 -1c-13 58 -17 88 -17 125c0 149 158 189 158 273c0 44 -30 47 -43 47c-44 0 -83 -43 -109 -71l-88 90c17 23 37 43 59 61c37 31 87 61 143 61
c113 0 184 -59 184 -182c0 -194 -165 -171 -165 -304c0 -27 4 -50 18 -99z" />
    <glyph glyph-name="_164" horiz-adv-x="0" 
 />
    <glyph glyph-name="Agrave" unicode="&#xc0;" horiz-adv-x="750" 
d="M730 0h-153l-59 135c-1 3 -4 5 -8 5h-271c-4 0 -7 -2 -8 -5l-56 -135h-154l299 750h109zM306 966l186 -79l-62 -97l-172 70zM377 493l-2 2c-1 0 -2 -1 -2 -2c-1 -1 -1 -1 -1 -2l-84 -211c-1 -1 -1 -2 -1 -4s1 -3 4 -3h167c3 0 4 1 4 4c0 1 0 2 -1 3l-83 211
c-1 1 -1 1 -1 2z" />
    <glyph glyph-name="Aacute" unicode="&#xc1;" horiz-adv-x="750" 
d="M730 0h-153l-59 135c-1 3 -4 5 -8 5h-271c-4 0 -7 -2 -8 -5l-56 -135h-154l299 750h109zM258 887l186 79l48 -106l-172 -70zM377 493l-2 2c-1 0 -2 -1 -2 -2c-1 -1 -1 -1 -1 -2l-84 -211c-1 -1 -1 -2 -1 -4s1 -3 4 -3h167c3 0 4 1 4 4c0 1 0 2 -1 3l-83 211
c-1 1 -1 1 -1 2z" />
    <glyph glyph-name="Scaron" unicode="&#x160;" horiz-adv-x="539" 
d="M55 150l114 49c20 -33 45 -65 98 -65c43 0 74 36 74 76c0 71 -51 87 -105 108c-102 39 -180 97 -180 215c0 135 86 223 219 223c73 0 160 -42 186 -124l-129 -62c-16 35 -46 42 -66 42c-37 0 -67 -36 -67 -73c0 -36 36 -66 78 -84c27 -11 79 -34 100 -47
c75 -45 107 -102 107 -198c0 -121 -94 -218 -211 -218h-9c-103 0 -181 68 -209 158zM268 803l-150 58l63 97l87 -33l89 39l64 -97z" />
    <glyph glyph-name="Ydieresis" unicode="&#x178;" horiz-adv-x="594" 
d="M16 750h158l120 -300c1 -2 2 -3 3 -3s2 1 3 3l121 299h156l-208 -479v-270h-143v270zM332 883c0 39 30 67 67 67c39 0 68 -28 68 -67c0 -37 -29 -67 -68 -67c-37 0 -67 30 -67 67zM126 883c0 39 29 67 68 67c37 0 67 -28 67 -67c0 -37 -30 -67 -67 -67
c-39 0 -68 30 -68 67z" />
    <glyph glyph-name="ydieresis" unicode="&#xff;" horiz-adv-x="477" 
d="M464 500l-241 -707h-145l88 250c1 2 1 5 1 9c0 3 0 6 -1 8l-153 440h146l78 -268c1 -1 1 -1 1 -2s0 -2 1 -2l2 2c0 1 0 1 1 2l78 268h144zM68 683c0 39 29 67 68 67c37 0 67 -28 67 -67c0 -37 -30 -67 -67 -67c-39 0 -68 30 -68 67zM274 683c0 39 30 67 67 67
c39 0 68 -28 68 -67c0 -37 -29 -67 -68 -67c-37 0 -67 30 -67 67z" />
    <glyph glyph-name="yacute" unicode="&#xfd;" horiz-adv-x="477" 
d="M464 500l-241 -707h-145l88 250c1 2 1 5 1 9c0 3 0 6 -1 8l-153 440h146l78 -268c1 -1 1 -1 1 -2s0 -2 1 -2l2 2c0 1 0 1 1 2l78 268h144zM121 687l186 79l48 -106l-172 -70z" />
    <glyph glyph-name="Yacute" unicode="&#xdd;" horiz-adv-x="594" 
d="M16 750h158l120 -300c1 -2 2 -3 3 -3s2 1 3 3l121 299h156l-208 -479v-270h-143v270zM180 887l186 79l48 -106l-172 -70z" />
    <glyph glyph-name="Udieresis" unicode="&#xdc;" horiz-adv-x="607" 
d="M56 213v536h143v-516c0 -59 59 -95 107 -95c53 0 102 40 102 91v520h143v-536c0 -128 -118 -218 -245 -218c-128 0 -250 90 -250 218zM339 883c0 39 30 67 67 67c39 0 68 -28 68 -67c0 -37 -29 -67 -68 -67c-37 0 -67 30 -67 67zM133 883c0 39 29 67 68 67
c37 0 67 -28 67 -67c0 -37 -30 -67 -67 -67c-39 0 -68 30 -68 67z" />
    <glyph glyph-name="udieresis" unicode="&#xfc;" horiz-adv-x="535" 
d="M490 500v-500h-127v19c-21 -16 -57 -27 -96 -27c-141 0 -223 80 -223 221v287h136v-285c0 -48 39 -87 87 -87c47 0 87 34 87 81v291h136zM303 683c0 39 30 67 67 67c39 0 68 -28 68 -67c0 -37 -29 -67 -68 -67c-37 0 -67 30 -67 67zM97 683c0 39 29 67 68 67
c37 0 67 -28 67 -67c0 -37 -30 -67 -67 -67c-39 0 -68 30 -68 67z" />
    <glyph glyph-name="ucircumflex" unicode="&#xfb;" horiz-adv-x="535" 
d="M490 500v-500h-127v19c-21 -16 -57 -27 -96 -27c-141 0 -223 80 -223 221v287h136v-285c0 -48 39 -87 87 -87c47 0 87 34 87 81v291h136zM116 706l150 58l153 -64l-64 -97l-89 39l-87 -33z" />
    <glyph glyph-name="Ucircumflex" unicode="&#xdb;" horiz-adv-x="607" 
d="M56 213v536h143v-516c0 -59 59 -95 107 -95c53 0 102 40 102 91v520h143v-536c0 -128 -118 -218 -245 -218c-128 0 -250 90 -250 218zM152 906l150 58l153 -64l-64 -97l-89 39l-87 -33z" />
    <glyph glyph-name="Uacute" unicode="&#xda;" horiz-adv-x="607" 
d="M56 213v536h143v-516c0 -59 59 -95 107 -95c53 0 102 40 102 91v520h143v-536c0 -128 -118 -218 -245 -218c-128 0 -250 90 -250 218zM186 887l186 79l48 -106l-172 -70z" />
    <glyph glyph-name="uacute" unicode="&#xfa;" horiz-adv-x="535" 
d="M490 500v-500h-127v19c-21 -16 -57 -27 -96 -27c-141 0 -223 80 -223 221v287h136v-285c0 -48 39 -87 87 -87c47 0 87 34 87 81v291h136zM150 687l186 79l48 -106l-172 -70z" />
    <glyph glyph-name="ugrave" unicode="&#xf9;" horiz-adv-x="535" 
d="M490 500v-500h-127v19c-21 -16 -57 -27 -96 -27c-141 0 -223 80 -223 221v287h136v-285c0 -48 39 -87 87 -87c47 0 87 34 87 81v291h136zM198 766l186 -79l-62 -97l-172 70z" />
    <glyph glyph-name="Ugrave" unicode="&#xd9;" horiz-adv-x="607" 
d="M56 213v536h143v-516c0 -59 59 -95 107 -95c53 0 102 40 102 91v520h143v-536c0 -128 -118 -218 -245 -218c-128 0 -250 90 -250 218zM234 966l186 -79l-62 -97l-172 70z" />
    <glyph glyph-name="Odieresis" unicode="&#xd6;" horiz-adv-x="876" 
d="M55 375c0 212 171 383 383 383s383 -171 383 -383s-171 -383 -383 -383s-383 171 -383 383zM198 375c0 -132 108 -240 240 -240s240 108 240 240s-108 240 -240 240s-240 -108 -240 -240zM473 883c0 39 30 67 67 67c39 0 68 -28 68 -67c0 -37 -29 -67 -68 -67
c-37 0 -67 30 -67 67zM267 883c0 39 29 67 68 67c37 0 67 -28 67 -67c0 -37 -30 -67 -67 -67c-39 0 -68 30 -68 67z" />
    <glyph glyph-name="odieresis" unicode="&#xf6;" horiz-adv-x="582" 
d="M172 251c0 -68 54 -122 122 -122c67 0 121 54 121 122c0 67 -54 121 -121 121c-68 0 -122 -54 -122 -121zM35 251c0 142 115 257 259 257c142 0 257 -115 257 -257c0 -144 -115 -259 -257 -259c-144 0 -259 115 -259 259zM326 683c0 39 30 67 67 67c39 0 68 -28 68 -67
c0 -37 -29 -67 -68 -67c-37 0 -67 30 -67 67zM120 683c0 39 29 67 68 67c37 0 67 -28 67 -67c0 -37 -30 -67 -67 -67c-39 0 -68 30 -68 67z" />
    <glyph glyph-name="otilde" unicode="&#xf5;" horiz-adv-x="582" 
d="M172 251c0 -68 54 -122 122 -122c67 0 121 54 121 122c0 67 -54 121 -121 121c-68 0 -122 -54 -122 -121zM35 251c0 142 115 257 259 257c142 0 257 -115 257 -257c0 -144 -115 -259 -257 -259c-144 0 -259 115 -259 259zM124 604l1 121c14 6 49 29 95 29s94 -25 124 -25
c41 0 80 20 113 41v-109c-15 -10 -48 -46 -98 -46c-40 0 -96 26 -136 26c-36 0 -78 -9 -99 -37z" />
    <glyph glyph-name="Otilde" unicode="&#xd5;" horiz-adv-x="876" 
d="M55 375c0 212 171 383 383 383s383 -171 383 -383s-171 -383 -383 -383s-383 171 -383 383zM198 375c0 -132 108 -240 240 -240s240 108 240 240s-108 240 -240 240s-240 -108 -240 -240zM271 804l1 121c14 6 49 29 95 29s94 -25 124 -25c41 0 80 20 113 41v-109
c-15 -10 -48 -46 -98 -46c-40 0 -96 26 -136 26c-36 0 -78 -9 -99 -37z" />
    <glyph glyph-name="Ocircumflex" unicode="&#xd4;" horiz-adv-x="876" 
d="M55 375c0 212 171 383 383 383s383 -171 383 -383s-171 -383 -383 -383s-383 171 -383 383zM198 375c0 -132 108 -240 240 -240s240 108 240 240s-108 240 -240 240s-240 -108 -240 -240zM286 906l150 58l153 -64l-64 -97l-89 39l-87 -33z" />
    <glyph glyph-name="ocircumflex" unicode="&#xf4;" horiz-adv-x="582" 
d="M172 251c0 -68 54 -122 122 -122c67 0 121 54 121 122c0 67 -54 121 -121 121c-68 0 -122 -54 -122 -121zM35 251c0 142 115 257 259 257c142 0 257 -115 257 -257c0 -144 -115 -259 -257 -259c-144 0 -259 115 -259 259zM139 706l150 58l153 -64l-64 -97l-89 39l-87 -33
z" />
    <glyph glyph-name="oacute" unicode="&#xf3;" horiz-adv-x="582" 
d="M172 251c0 -68 54 -122 122 -122c67 0 121 54 121 122c0 67 -54 121 -121 121c-68 0 -122 -54 -122 -121zM35 251c0 142 115 257 259 257c142 0 257 -115 257 -257c0 -144 -115 -259 -257 -259c-144 0 -259 115 -259 259zM174 687l186 79l48 -106l-172 -70z" />
    <glyph glyph-name="Oacute" unicode="&#xd3;" horiz-adv-x="876" 
d="M55 375c0 212 171 383 383 383s383 -171 383 -383s-171 -383 -383 -383s-383 171 -383 383zM198 375c0 -132 108 -240 240 -240s240 108 240 240s-108 240 -240 240s-240 -108 -240 -240zM321 887l186 79l48 -106l-172 -70z" />
    <glyph glyph-name="Ograve" unicode="&#xd2;" horiz-adv-x="876" 
d="M55 375c0 212 171 383 383 383s383 -171 383 -383s-171 -383 -383 -383s-383 171 -383 383zM198 375c0 -132 108 -240 240 -240s240 108 240 240s-108 240 -240 240s-240 -108 -240 -240zM369 966l186 -79l-62 -97l-172 70z" />
    <glyph glyph-name="ograve" unicode="&#xf2;" horiz-adv-x="582" 
d="M172 251c0 -68 54 -122 122 -122c67 0 121 54 121 122c0 67 -54 121 -121 121c-68 0 -122 -54 -122 -121zM35 251c0 142 115 257 259 257c142 0 257 -115 257 -257c0 -144 -115 -259 -257 -259c-144 0 -259 115 -259 259zM222 766l186 -79l-62 -97l-172 70z" />
    <glyph glyph-name="ntilde" unicode="&#xf1;" horiz-adv-x="533" 
d="M44 0v500h124v-19c29 19 64 27 99 27c141 0 223 -80 223 -221v-287h-136v285c0 48 -39 87 -87 87c-47 0 -84 -34 -87 -81v-291h-136zM100 604l1 121c14 6 49 29 95 29s94 -25 124 -25c41 0 80 20 113 41v-109c-15 -10 -48 -46 -98 -46c-40 0 -96 26 -136 26
c-36 0 -78 -9 -99 -37z" />
    <glyph glyph-name="Ntilde" unicode="&#xd1;" horiz-adv-x="711" 
d="M57 749l134 1l320 -475v474h143v-749h-133l-321 475v-475h-143v749zM189 804l1 121c14 6 49 29 95 29s94 -25 124 -25c41 0 80 20 113 41v-109c-15 -10 -48 -46 -98 -46c-40 0 -96 26 -136 26c-36 0 -78 -9 -99 -37z" />
    <glyph glyph-name="Idieresis" unicode="&#xcf;" horiz-adv-x="257" 
d="M57 750h143v-750h-143v750zM165 883c0 39 30 67 67 67c39 0 68 -28 68 -67c0 -37 -29 -67 -68 -67c-37 0 -67 30 -67 67zM-41 883c0 39 29 67 68 67c37 0 67 -28 67 -67c0 -37 -30 -67 -67 -67c-39 0 -68 30 -68 67z" />
    <glyph glyph-name="idieresis" unicode="&#xef;" horiz-adv-x="210" 
d="M45 0v500h121v-500h-121zM142 683c0 39 30 67 67 67c39 0 68 -28 68 -67c0 -37 -29 -67 -68 -67c-37 0 -67 30 -67 67zM-64 683c0 39 29 67 68 67c37 0 67 -28 67 -67c0 -37 -30 -67 -67 -67c-39 0 -68 30 -68 67z" />
    <glyph glyph-name="icircumflex" unicode="&#xee;" horiz-adv-x="210" 
d="M45 0v500h121v-500h-121zM-45 706l150 58l153 -64l-64 -97l-89 39l-87 -33z" />
    <glyph glyph-name="Icircumflex" unicode="&#xce;" horiz-adv-x="257" 
d="M57 750h143v-750h-143v750zM-22 906l150 58l153 -64l-64 -97l-89 39l-87 -33z" />
    <glyph glyph-name="Iacute" unicode="&#xcd;" horiz-adv-x="257" 
d="M57 750h143v-750h-143v750zM13 887l186 79l48 -106l-172 -70z" />
    <glyph glyph-name="iacute" unicode="&#xed;" horiz-adv-x="210" 
d="M45 0v500h121v-500h-121zM-11 687l186 79l48 -106l-172 -70z" />
    <glyph glyph-name="igrave" unicode="&#xec;" horiz-adv-x="210" 
d="M45 0v500h121v-500h-121zM37 766l186 -79l-62 -97l-172 70z" />
    <glyph glyph-name="Igrave" unicode="&#xcc;" horiz-adv-x="257" 
d="M57 750h143v-750h-143v750zM61 966l186 -79l-62 -97l-172 70z" />
    <glyph glyph-name="Edieresis" unicode="&#xcb;" horiz-adv-x="527" 
d="M200 299v-150c0 -4 2 -6 6 -6h263v-143h-412v750h412v-143h-263c-4 0 -6 -2 -6 -6v-147c0 -4 2 -6 6 -6h263v-143h-263c-4 0 -6 -2 -6 -6zM299 883c0 39 30 67 67 67c39 0 68 -28 68 -67c0 -37 -29 -67 -68 -67c-37 0 -67 30 -67 67zM93 883c0 39 29 67 68 67
c37 0 67 -28 67 -67c0 -37 -30 -67 -67 -67c-39 0 -68 30 -68 67z" />
    <glyph glyph-name="edieresis" unicode="&#xeb;" horiz-adv-x="533" 
d="M300 116c50 0 89 16 135 40l55 -97c-67 -48 -121 -67 -203 -67c-150 0 -259 109 -259 259c0 142 110 256 252 256c149 0 229 -102 229 -246c0 -21 -1 -37 -3 -57h-327c-2 0 -3 -2 -3 -5c15 -49 63 -83 124 -83zM275 388c-27 0 -54 -13 -72 -31c-20 -20 -29 -43 -29 -50
c0 -2 1 -3 4 -3h189c3 0 4 1 4 2c0 14 -6 39 -22 55s-37 27 -74 27zM302 683c0 39 30 67 67 67c39 0 68 -28 68 -67c0 -37 -29 -67 -68 -67c-37 0 -67 30 -67 67zM96 683c0 39 29 67 68 67c37 0 67 -28 67 -67c0 -37 -30 -67 -67 -67c-39 0 -68 30 -68 67z" />
    <glyph glyph-name="ecircumflex" unicode="&#xea;" horiz-adv-x="533" 
d="M300 116c50 0 89 16 135 40l55 -97c-67 -48 -121 -67 -203 -67c-150 0 -259 109 -259 259c0 142 110 256 252 256c149 0 229 -102 229 -246c0 -21 -1 -37 -3 -57h-327c-2 0 -3 -2 -3 -5c15 -49 63 -83 124 -83zM275 388c-27 0 -54 -13 -72 -31c-20 -20 -29 -43 -29 -50
c0 -2 1 -3 4 -3h189c3 0 4 1 4 2c0 14 -6 39 -22 55s-37 27 -74 27zM115 706l150 58l153 -64l-64 -97l-89 39l-87 -33z" />
    <glyph glyph-name="Ecircumflex" unicode="&#xca;" horiz-adv-x="527" 
d="M200 299v-150c0 -4 2 -6 6 -6h263v-143h-412v750h412v-143h-263c-4 0 -6 -2 -6 -6v-147c0 -4 2 -6 6 -6h263v-143h-263c-4 0 -6 -2 -6 -6zM112 906l150 58l153 -64l-64 -97l-89 39l-87 -33z" />
    <glyph glyph-name="Eacute" unicode="&#xc9;" horiz-adv-x="527" 
d="M200 299v-150c0 -4 2 -6 6 -6h263v-143h-412v750h412v-143h-263c-4 0 -6 -2 -6 -6v-147c0 -4 2 -6 6 -6h263v-143h-263c-4 0 -6 -2 -6 -6zM146 887l186 79l48 -106l-172 -70z" />
    <glyph glyph-name="eacute" unicode="&#xe9;" horiz-adv-x="533" 
d="M300 116c50 0 89 16 135 40l55 -97c-67 -48 -121 -67 -203 -67c-150 0 -259 109 -259 259c0 142 110 256 252 256c149 0 229 -102 229 -246c0 -21 -1 -37 -3 -57h-327c-2 0 -3 -2 -3 -5c15 -49 63 -83 124 -83zM275 388c-27 0 -54 -13 -72 -31c-20 -20 -29 -43 -29 -50
c0 -2 1 -3 4 -3h189c3 0 4 1 4 2c0 14 -6 39 -22 55s-37 27 -74 27zM149 687l186 79l48 -106l-172 -70z" />
    <glyph glyph-name="egrave" unicode="&#xe8;" horiz-adv-x="533" 
d="M300 116c50 0 89 16 135 40l55 -97c-67 -48 -121 -67 -203 -67c-150 0 -259 109 -259 259c0 142 110 256 252 256c149 0 229 -102 229 -246c0 -21 -1 -37 -3 -57h-327c-2 0 -3 -2 -3 -5c15 -49 63 -83 124 -83zM275 388c-27 0 -54 -13 -72 -31c-20 -20 -29 -43 -29 -50
c0 -2 1 -3 4 -3h189c3 0 4 1 4 2c0 14 -6 39 -22 55s-37 27 -74 27zM197 766l186 -79l-62 -97l-172 70z" />
    <glyph glyph-name="Egrave" unicode="&#xc8;" horiz-adv-x="527" 
d="M200 299v-150c0 -4 2 -6 6 -6h263v-143h-412v750h412v-143h-263c-4 0 -6 -2 -6 -6v-147c0 -4 2 -6 6 -6h263v-143h-263c-4 0 -6 -2 -6 -6zM194 966l186 -79l-62 -97l-172 70z" />
    <glyph glyph-name="ae" unicode="&#xe6;" horiz-adv-x="926" 
d="M681 116c50 0 89 16 135 40l55 -97c-67 -48 -121 -67 -203 -67c-47 0 -89 10 -125 29v-21h-125v29c-40 -25 -85 -37 -134 -37c-141 0 -258 117 -258 258s117 258 258 258c49 0 95 -14 134 -38l1 30h124v-22c35 18 75 29 118 29c149 0 229 -102 229 -246
c0 -21 -1 -37 -3 -57h-327c-2 0 -3 -2 -3 -5c15 -49 63 -83 124 -83zM161 250c0 -70 54 -124 123 -124s123 54 123 124s-54 124 -123 124s-123 -54 -123 -124zM656 388c-27 0 -54 -13 -72 -31c-20 -20 -29 -43 -29 -50c0 -2 1 -3 4 -3h189c3 0 4 1 4 2c0 14 -6 39 -22 55
s-37 27 -74 27z" />
    <glyph glyph-name="AE" unicode="&#xc6;" horiz-adv-x="932" 
d="M614 299v-150c0 -4 2 -6 6 -6h263v-143h-412v140h-217c-4 0 -7 -2 -8 -5l-71 -135h-154l367 750h495v-143h-263c-4 0 -6 -2 -6 -6v-147c0 -4 2 -6 6 -6h263v-143h-263c-4 0 -6 -2 -6 -6zM471 273v333c-1 0 -2 -1 -2 -2c-1 -1 -1 -1 -1 -2l-159 -322c-1 -1 -1 -2 -1 -4
s1 -3 4 -3h159z" />
    <glyph glyph-name="Aring" unicode="&#xc5;" horiz-adv-x="750" 
d="M730 0h-153l-59 135c-1 3 -4 5 -8 5h-271c-4 0 -7 -2 -8 -5l-56 -135h-154l299 750h109zM276 878c0 56 43 99 99 99s99 -43 99 -99s-43 -99 -99 -99s-99 43 -99 99zM377 493l-2 2c-1 0 -2 -1 -2 -2c-1 -1 -1 -1 -1 -2l-84 -211c-1 -1 -1 -2 -1 -4s1 -3 4 -3h167
c3 0 4 1 4 4c0 1 0 2 -1 3l-83 211c-1 1 -1 1 -1 2zM311 878c0 -35 29 -64 64 -64s64 29 64 64s-29 64 -64 64s-64 -29 -64 -64z" />
    <glyph glyph-name="aring" unicode="&#xe5;" horiz-adv-x="587" 
d="M161 250c0 -70 54 -124 123 -124s123 54 123 124s-54 124 -123 124s-123 -54 -123 -124zM419 500h124v-500h-124v29c-40 -25 -86 -37 -135 -37c-141 0 -258 117 -258 258s117 258 258 258c49 0 96 -14 135 -38v30zM194 678c0 56 43 99 99 99s99 -43 99 -99
s-43 -99 -99 -99s-99 43 -99 99zM229 678c0 -35 29 -64 64 -64s64 29 64 64s-29 64 -64 64s-64 -29 -64 -64z" />
    <glyph glyph-name="adieresis" unicode="&#xe4;" horiz-adv-x="587" 
d="M161 250c0 -70 54 -124 123 -124s123 54 123 124s-54 124 -123 124s-123 -54 -123 -124zM419 500h124v-500h-124v29c-40 -25 -86 -37 -135 -37c-141 0 -258 117 -258 258s117 258 258 258c49 0 96 -14 135 -38v30zM329 683c0 39 30 67 67 67c39 0 68 -28 68 -67
c0 -37 -29 -67 -68 -67c-37 0 -67 30 -67 67zM123 683c0 39 29 67 68 67c37 0 67 -28 67 -67c0 -37 -30 -67 -67 -67c-39 0 -68 30 -68 67z" />
    <glyph glyph-name="Adieresis" unicode="&#xc4;" horiz-adv-x="750" 
d="M730 0h-153l-59 135c-1 3 -4 5 -8 5h-271c-4 0 -7 -2 -8 -5l-56 -135h-154l299 750h109zM377 493l-2 2c-1 0 -2 -1 -2 -2c-1 -1 -1 -1 -1 -2l-84 -211c-1 -1 -1 -2 -1 -4s1 -3 4 -3h167c3 0 4 1 4 4c0 1 0 2 -1 3l-83 211c-1 1 -1 1 -1 2zM410 883c0 39 30 67 67 67
c39 0 68 -28 68 -67c0 -37 -29 -67 -68 -67c-37 0 -67 30 -67 67zM204 883c0 39 29 67 68 67c37 0 67 -28 67 -67c0 -37 -30 -67 -67 -67c-39 0 -68 30 -68 67z" />
    <glyph glyph-name="Atilde" unicode="&#xc3;" horiz-adv-x="750" 
d="M730 0h-153l-59 135c-1 3 -4 5 -8 5h-271c-4 0 -7 -2 -8 -5l-56 -135h-154l299 750h109zM208 804l1 121c14 6 49 29 95 29s94 -25 124 -25c41 0 80 20 113 41v-109c-15 -10 -48 -46 -98 -46c-40 0 -96 26 -136 26c-36 0 -78 -9 -99 -37zM377 493l-2 2c-1 0 -2 -1 -2 -2
c-1 -1 -1 -1 -1 -2l-84 -211c-1 -1 -1 -2 -1 -4s1 -3 4 -3h167c3 0 4 1 4 4c0 1 0 2 -1 3l-83 211c-1 1 -1 1 -1 2z" />
    <glyph glyph-name="atilde" unicode="&#xe3;" horiz-adv-x="587" 
d="M161 250c0 -70 54 -124 123 -124s123 54 123 124s-54 124 -123 124s-123 -54 -123 -124zM419 500h124v-500h-124v29c-40 -25 -86 -37 -135 -37c-141 0 -258 117 -258 258s117 258 258 258c49 0 96 -14 135 -38v30zM127 604l1 121c14 6 49 29 95 29s94 -25 124 -25
c41 0 80 20 113 41v-109c-15 -10 -48 -46 -98 -46c-40 0 -96 26 -136 26c-36 0 -78 -9 -99 -37z" />
    <glyph glyph-name="acircumflex" unicode="&#xe2;" horiz-adv-x="587" 
d="M161 250c0 -70 54 -124 123 -124s123 54 123 124s-54 124 -123 124s-123 -54 -123 -124zM419 500h124v-500h-124v29c-40 -25 -86 -37 -135 -37c-141 0 -258 117 -258 258s117 258 258 258c49 0 96 -14 135 -38v30zM142 706l150 58l153 -64l-64 -97l-89 39l-87 -33z" />
    <glyph glyph-name="Acircumflex" unicode="&#xc2;" horiz-adv-x="750" 
d="M730 0h-153l-59 135c-1 3 -4 5 -8 5h-271c-4 0 -7 -2 -8 -5l-56 -135h-154l299 750h109zM223 906l150 58l153 -64l-64 -97l-89 39l-87 -33zM377 493l-2 2c-1 0 -2 -1 -2 -2c-1 -1 -1 -1 -1 -2l-84 -211c-1 -1 -1 -2 -1 -4s1 -3 4 -3h167c3 0 4 1 4 4c0 1 0 2 -1 3
l-83 211c-1 1 -1 1 -1 2z" />
    <glyph glyph-name="aacute" unicode="&#xe1;" horiz-adv-x="587" 
d="M161 250c0 -70 54 -124 123 -124s123 54 123 124s-54 124 -123 124s-123 -54 -123 -124zM419 500h124v-500h-124v29c-40 -25 -86 -37 -135 -37c-141 0 -258 117 -258 258s117 258 258 258c49 0 96 -14 135 -38v30zM176 687l186 79l48 -106l-172 -70z" />
    <glyph glyph-name="agrave" unicode="&#xe0;" horiz-adv-x="587" 
d="M161 250c0 -70 54 -124 123 -124s123 54 123 124s-54 124 -123 124s-123 -54 -123 -124zM419 500h124v-500h-124v29c-40 -25 -86 -37 -135 -37c-141 0 -258 117 -258 258s117 258 258 258c49 0 96 -14 135 -38v30zM224 766l186 -79l-62 -97l-172 70z" />
    <glyph glyph-name="Ccedilla" unicode="&#xc7;" horiz-adv-x="713" 
d="M437 615c-136 -5 -240 -107 -240 -240s116 -232 240 -240c57 0 110 20 151 53l88 -114c-13 -13 -94 -82 -239 -82c-15 0 -30 1 -44 3l-35 -46c7 0 15 3 22 3c43 0 75 -28 75 -76c0 -65 -62 -94 -111 -94c-17 0 -67 6 -86 17v63c7 -3 15 -5 22 -7c13 -4 28 -7 41 -7h9
c16 0 29 5 29 28c0 27 -17 28 -34 28h-57l69 96h22c-175 35 -305 189 -305 375c0 212 171 383 383 383c146 0 225 -71 239 -82l-88 -114c-41 33 -94 53 -151 53z" />
    <glyph glyph-name="ccedilla" unicode="&#xe7;" horiz-adv-x="550" 
d="M294 508c87 0 172 -51 212 -113l-101 -75c-25 22 -50 52 -109 52c-68 0 -122 -54 -122 -121c0 -68 54 -122 122 -122c47 0 77 22 108 65l119 -60c-42 -80 -120 -136 -214 -141l-33 -44c7 0 15 3 22 3c43 0 75 -28 75 -76c0 -65 -62 -94 -111 -94c-17 0 -67 6 -86 17v63
c7 -3 15 -5 22 -7c13 -4 28 -7 41 -7h9c16 0 29 5 29 28c0 27 -17 28 -34 28h-57l66 92c-124 19 -217 125 -217 255c0 142 115 257 259 257z" />
    <glyph glyph-name="questiondown" unicode="&#xbf;" horiz-adv-x="450" 
d="M171 690c0 36 30 68 69 68c36 0 68 -32 68 -68c0 -39 -32 -69 -68 -69c-39 0 -69 30 -69 69zM174 581l140 1c13 -58 17 -88 17 -125c0 -149 -158 -189 -158 -273c0 -44 30 -47 43 -47c44 0 83 43 109 71l88 -90c-17 -23 -37 -43 -59 -61c-37 -31 -87 -61 -143 -61
c-113 0 -184 59 -184 182c0 194 165 171 165 304c0 27 -4 50 -18 99z" />
    <glyph glyph-name="exclamdown" unicode="&#xa1;" horiz-adv-x="226" 
d="M182 577v-581h-136v581h136zM182 682c0 -39 -30 -69 -69 -69c-36 0 -68 30 -68 69c0 36 32 68 68 68c39 0 69 -32 69 -68z" />
    <glyph glyph-name="zcaron" unicode="&#x17e;" horiz-adv-x="427" 
d="M208 350c3 3 4 6 4 8c0 5 -6 8 -17 8h-156v134h349v-102c2 0 -175 -243 -175 -256c0 -5 5 -7 15 -7h160v-135h-349v107l86 121c42 62 84 122 83 122zM212 603l-150 58l63 97l87 -33l89 39l64 -97z" />
    <glyph glyph-name="Zcaron" unicode="&#x17d;" horiz-adv-x="586" 
d="M352 590c2 4 3 7 3 9c0 5 -6 8 -17 8h-282v143h472v-111c1 -1 -297 -472 -298 -488c0 -5 6 -8 17 -8h281v-143h-472v110c56 89 106 169 149 240c75 120 147 240 147 240zM291 803l-150 58l63 97l87 -33l89 39l64 -97z" />
    <glyph glyph-name="oe" unicode="&#x153;" horiz-adv-x="924" 
d="M688 116c50 0 89 16 135 40l55 -97c-67 -48 -121 -67 -203 -67c-80 0 -147 30 -194 81c-47 -50 -113 -81 -187 -81c-144 0 -259 115 -259 259c0 142 115 257 259 257c74 0 141 -32 188 -83c46 50 111 82 186 82c149 0 229 -102 229 -246c0 -21 -1 -37 -3 -57h-327
c-2 0 -3 -2 -3 -5c15 -49 63 -83 124 -83zM172 251c0 -68 54 -122 122 -122c67 0 121 54 121 122c0 67 -54 121 -121 121c-68 0 -122 -54 -122 -121zM663 388c-27 0 -54 -13 -72 -31c-20 -20 -29 -43 -29 -50c0 -2 1 -3 4 -3h189c3 0 4 1 4 2c0 14 -6 39 -22 55
s-37 27 -74 27z" />
    <glyph glyph-name="OE" unicode="&#x152;" horiz-adv-x="1130" 
d="M822 299v-150c0 -4 2 -6 6 -6h263v-143h-412v77c-66 -53 -150 -85 -241 -85c-212 0 -383 171 -383 383s171 383 383 383c91 0 175 -32 241 -85v77h412v-143h-263c-4 0 -6 -2 -6 -6v-147c0 -4 2 -6 6 -6h263v-143h-263c-4 0 -6 -2 -6 -6zM198 375
c0 -132 108 -240 240 -240s240 108 240 240s-108 240 -240 240s-240 -108 -240 -240z" />
    <glyph glyph-name="fi" unicode="&#xfb01;" horiz-adv-x="687" 
d="M141 500v48c0 92 57 154 155 154h89v-118h-53c-42 0 -55 -24 -55 -57v-27h145v-122h-145v-378h-136v378h-81v122h81zM507 0v501h136v-501h-136zM507 610c0 36 30 68 69 68c36 0 68 -32 68 -68c0 -39 -32 -69 -68 -69c-39 0 -69 30 -69 69z" />
    <glyph glyph-name="fl" unicode="&#xfb02;" horiz-adv-x="701" 
d="M141 500v48c0 92 57 154 155 154h89v-118h-53c-42 0 -55 -24 -55 -57v-27h145v-122h-145v-378h-136v378h-81v122h81zM520 0v700h136v-700h-136z" />
    <glyph glyph-name="onequarter" unicode="&#xbc;" horiz-adv-x="822" 
d="M437 79v91c37 58 69 110 98 157c47 79 98 158 100 160h95v-317h46v-95h-46v-75h-93v75c0 3 -1 4 -4 4h-196zM43 662v88h170v-489h-93v397c0 3 -1 4 -4 4h-73zM303 -7l-61 8l216 756l60 -14zM635 333l-84 -144l-12 -21c0 -2 1 -3 2 -3h92c3 0 4 1 4 4c0 23 -1 66 -1 105
c-1 18 -1 38 -1 59z" />
    <glyph glyph-name="onehalf" unicode="&#xbd;" horiz-adv-x="836" 
d="M43 662v88h170v-489h-93v397c0 3 -1 4 -4 4h-73zM303 -7l-61 8l216 756l60 -14zM492 0l-1 111c11 11 171 156 186 171c15 13 24 33 24 50c0 35 -28 64 -64 64c-28 0 -52 -20 -61 -45l-86 30c20 61 79 106 147 106c85 0 156 -69 156 -155c0 -47 -18 -81 -51 -114
c-11 -11 -46 -42 -81 -70l-65 -54c0 -1 1 -2 2 -2h196v-92h-302z" />
    <glyph glyph-name="threequarters" unicode="&#xbe;" horiz-adv-x="920" 
d="M520 79v91c37 58 69 110 98 157c47 79 98 158 100 160h95v-317h46v-95h-46v-75h-93v75c0 3 -1 4 -4 4h-196zM110 620l-35 71c21 36 59 60 104 60c67 0 121 -54 121 -122c0 -30 -9 -55 -28 -76c-1 -3 -2 -4 -2 -4v-1c0 -1 1 -1 2 -1c44 -29 74 -78 74 -135
c0 -87 -71 -159 -159 -159c-53 0 -96 27 -127 67c-13 19 -24 42 -24 69l86 12c7 -32 33 -55 66 -55c36 0 65 33 65 73c0 37 -27 67 -60 76l-43 12v68l40 11c16 4 25 12 25 39c0 19 -16 36 -35 36s-36 -10 -49 -21zM386 -7l-61 8l216 756l60 -14zM718 333l-84 -144l-12 -21
c0 -2 1 -3 2 -3h92c3 0 4 1 4 4c0 23 -1 66 -1 105c-1 18 -1 38 -1 59z" />
    </font>
</defs>
</svg>
